<?xml version="1.0" encoding="UTF-8"?>
<svg width="14px" height="15px" viewBox="0 0 14 15" version="1.1" xmlns="http://www.w3.org/2000/svg" xmlns:xlink="http://www.w3.org/1999/xlink">
    <title>cl</title>
    <g id="web" stroke="none" stroke-width="1" fill="none" fill-rule="evenodd">
        <g id="metanoia" transform="translate(-46.000000, -1039.000000)" fill="#000000" fill-rule="nonzero">
            <path d="M52.96,1054 C54.3066667,1054 55.5033333,1053.7 56.55,1053.1 C57.5966667,1052.5 58.41,1051.66333 58.99,1050.59 C59.57,1049.51667 59.86,1048.29333 59.86,1046.92 C59.86,1045.54667 59.57,1044.32667 58.99,1043.26 C58.41,1042.19333 57.5966667,1041.36 56.55,1040.76 C55.5033333,1040.16 54.3066667,1039.86 52.96,1039.86 C51.6133333,1039.86 50.4166667,1040.16 49.37,1040.76 C48.3233333,1041.36 47.51,1042.19333 46.93,1043.26 C46.35,1044.32667 46.06,1045.54667 46.06,1046.92 C46.06,1048.29333 46.35,1049.51667 46.93,1050.59 C47.51,1051.66333 48.3233333,1052.5 49.37,1053.1 C50.4166667,1053.7 51.6133333,1054 52.96,1054 Z M52.96,1053.4 C51.6933333,1053.4 50.5866667,1053.12333 49.64,1052.57 C48.6933333,1052.01667 47.9666667,1051.25 47.46,1050.27 C46.9533333,1049.29 46.7,1048.17333 46.7,1046.92 C46.7,1045.68 46.9533333,1044.57 47.46,1043.59 C47.9666667,1042.61 48.6933333,1041.84333 49.64,1041.29 C50.5866667,1040.73667 51.6933333,1040.46 52.96,1040.46 C54.2133333,1040.46 55.3133333,1040.73667 56.26,1041.29 C57.2066667,1041.84333 57.9333333,1042.61 58.44,1043.59 C58.9466667,1044.57 59.2,1045.68 59.2,1046.92 C59.2,1048.17333 58.9466667,1049.29 58.44,1050.27 C57.9333333,1051.25 57.2066667,1052.01667 56.26,1052.57 C55.3133333,1053.12333 54.2133333,1053.4 52.96,1053.4 Z M53.02,1051.6 C54.0066667,1051.6 54.88,1051.31667 55.64,1050.75 C56.4,1050.18333 56.9,1049.39333 57.14,1048.38 L55.9,1048.38 C55.6866667,1049.08667 55.3133333,1049.63 54.78,1050.01 C54.2466667,1050.39 53.6466667,1050.58 52.98,1050.58 C52.42,1050.58 51.9,1050.44 51.42,1050.16 C50.94,1049.88 50.5566667,1049.46667 50.27,1048.92 C49.9833333,1048.37333 49.84,1047.71333 49.84,1046.94 C49.84,1046.15333 49.9833333,1045.48667 50.27,1044.94 C50.5566667,1044.39333 50.94,1043.98 51.42,1043.7 C51.9,1043.42 52.42,1043.28 52.98,1043.28 C53.6466667,1043.28 54.2466667,1043.47 54.78,1043.85 C55.3133333,1044.23 55.6866667,1044.77333 55.9,1045.48 L57.14,1045.48 C56.9,1044.46667 56.4,1043.67667 55.64,1043.11 C54.88,1042.54333 54.0066667,1042.26 53.02,1042.26 C52.22,1042.26 51.49,1042.44333 50.83,1042.81 C50.17,1043.17667 49.6466667,1043.71 49.26,1044.41 C48.8733333,1045.11 48.68,1045.94667 48.68,1046.92 C48.68,1047.90667 48.8733333,1048.75 49.26,1049.45 C49.6466667,1050.15 50.17,1050.68333 50.83,1051.05 C51.49,1051.41667 52.22,1051.6 53.02,1051.6 Z" id="cl"></path>
        </g>
    </g>
</svg>