<svg width="513" height="57" viewBox="0 0 513 57" fill="none" xmlns="http://www.w3.org/2000/svg">
<path d="M108.794 0C116.246 0.00533924 122.576 0.287309 128.839 4.47284C135.506 8.94568 138.295 15.2565 138.295 22.5479C138.295 29.0427 134.349 44.8506 112.173 44.8506H94.4754C94.3962 44.8506 94.3165 44.8498 94.2368 44.8483L94.0774 44.8441C93.0695 44.8101 92.1056 44.6056 92.1056 43.4415C92.1056 42.4611 92.9219 42.2161 93.8061 41.9709C96.0082 41.3446 96.1863 40.8961 96.1907 39.2998V39.1581C96.1902 38.917 96.187 38.6509 96.187 38.356V4.289C96.187 3.36993 94.8946 3.18608 94.0102 2.94105C93.0579 2.6347 92.1735 2.45086 92.1735 1.40927C92.1735 0.122515 93.466 0 94.5544 0H108.794ZM108.867 3.30196C102.693 3.30196 102.219 4.58597 102.219 9.59995L102.218 34.7342C102.218 34.7925 102.218 34.8502 102.218 34.9077V35.2462C102.222 40.6331 102.468 41.824 109.682 41.824C122.912 41.824 131.189 34.7922 131.189 22.7463C131.189 10.7006 124.133 3.30196 108.867 3.30196Z" fill="black"/>
<path d="M195.521 45.1143L195.641 45.1069C195.821 45.0957 196.004 45.0835 196.179 45.0835H202.845C203.64 45.0835 204.434 44.6027 204.434 43.7011C204.434 42.9198 203.884 42.6794 202.416 42.1384C201.561 41.838 201.316 40.9966 201.316 37.691V27.8342C201.316 24.7089 201.01 21.8841 198.809 19.48C196.791 17.3163 193.794 16.2345 190.921 16.2345C186.213 16.2345 183.094 17.9173 180.219 21.4635C179.792 18.0375 179.18 16.2345 177.651 16.2345C176.672 16.2345 175.266 17.4967 174.532 18.0375C173.922 18.5184 173.003 19.1194 173.003 20.021C173.003 20.6821 173.86 20.9225 175.083 21.3433C176.183 21.7039 176.367 22.7255 176.367 25.5503V37.691C176.367 41.3572 176 41.838 174.777 42.3188C173.615 42.7395 173.126 42.9799 173.126 43.7011C173.126 44.8685 174.043 45.0501 174.952 45.0783L175.096 45.0817C175.168 45.0827 175.239 45.0832 175.309 45.0834L182.604 45.0835C183.461 45.0835 184.195 44.6027 184.195 43.7011C184.195 42.9198 183.583 42.6794 182.36 42.2586C181.025 41.8024 180.958 40.967 180.953 38.1594V37.8509C180.953 37.7982 180.953 37.745 180.953 37.691V27.7742C180.953 25.4301 181.076 23.7472 182.911 22.0645C184.622 20.5618 187.068 19.5402 189.637 19.5402C194.223 19.5402 196.73 22.1245 196.73 26.6923V37.691C196.73 40.7562 196.546 41.7178 195.507 42.1986L194.895 42.4991C194.345 42.7996 193.916 43.0401 193.916 43.7011C193.916 45.13 194.685 45.1623 195.521 45.1143Z" fill="black"/>
<path d="M222.221 15.4086C223.541 15.4086 224.501 15.5297 225.461 15.5903C226.481 15.7115 227.443 15.8327 228.823 15.8327L233.611 15.833C235.465 15.8395 236.685 15.9538 236.685 17.4686C236.685 18.9035 235.285 18.9791 232.79 18.983L230.503 18.9833C233.264 21.7703 234.825 25.2845 234.825 29.3439C234.825 33.7062 232.845 37.6444 229.482 40.3103C232.784 41.5221 236.085 44.0668 236.085 47.9445C236.085 55.4574 226.242 56.8509 220.6 56.8509C215.857 56.8509 209.135 56.3056 209.135 52.0644C209.135 50.4892 210.695 47.7627 212.377 47.7627C212.916 47.7627 213.157 48.1868 213.157 48.6715C213.157 49.1562 213.036 49.6409 213.036 50.1863C213.036 52.3674 217.058 53.4579 221.439 53.4579C225.04 53.4579 231.224 52.9127 231.224 48.0656C231.224 44.9066 228.705 43.5552 226.262 42.4295L226.088 42.3496L226.002 42.3097C224.501 42.8551 222.94 43.1579 221.38 43.1579C213.397 43.1579 208.535 37.4021 208.535 29.5862C208.535 21.2251 214.177 15.4086 222.221 15.4086ZM221.741 18.3497C215.843 18.3497 213.315 24.4767 213.315 29.5725C213.315 34.4255 215.602 40.0066 221.199 40.0066C227.578 40.0066 230.047 34.7895 230.047 29.0872C230.047 23.87 227.699 18.3497 221.741 18.3497Z" fill="black"/>
<path d="M250.496 44.8506C251.368 44.8506 251.99 44.3593 251.99 43.4379C251.99 42.6393 251.368 42.3936 250.247 41.9635C248.888 41.4972 248.819 40.6433 248.816 37.7737L248.815 2.33844L248.814 2.17697C248.799 1.07362 248.659 0 247.384 0C246.201 0 243.151 1.29007 242.03 1.90423C241.47 2.21145 240.785 2.45721 240.785 3.19431C240.785 3.74714 241.344 3.99289 241.781 4.11569C241.88 4.15162 241.978 4.18611 242.076 4.2206L242.223 4.27211C243.242 4.63504 244.147 5.04486 244.147 6.81864V37.2949C244.147 41.0422 243.773 41.5335 242.528 42.025C241.593 42.455 241.095 42.7006 241.095 43.4379C241.095 44.7222 241.971 44.8391 242.925 44.8496L243.069 44.8506H250.496Z" fill="black"/>
<path d="M351.136 44.8311C351.317 44.8196 351.499 44.8072 351.676 44.8072H358.354C359.15 44.8072 359.946 44.3163 359.946 43.3956C359.946 42.5979 359.395 42.3523 357.925 41.8001C357.068 41.4931 356.823 40.6339 356.823 37.2585V27.2805C356.823 24.0891 356.516 21.2047 354.31 18.7498C352.289 16.5404 349.286 15.4357 346.406 15.4357C342.731 15.4357 339.115 16.8473 336.419 19.4249V2.33628L336.418 2.17495C336.404 1.07261 336.267 0 335.01 0C333.847 0 330.845 1.28878 329.742 1.9025C329.191 2.20943 328.516 2.4549 328.516 3.19128C328.516 3.74367 329.068 3.98914 329.496 4.11194C329.594 4.14773 329.69 4.18221 329.787 4.21656L329.931 4.26822C330.934 4.63071 331.825 5.0401 331.825 6.81229V37.2585C331.825 41.0022 331.458 41.4931 330.231 41.9842C329.068 42.4138 328.578 42.6592 328.578 43.3956C328.578 44.5876 329.494 44.773 330.407 44.8019L330.551 44.8053C330.623 44.8065 330.695 44.8069 330.765 44.807L338.075 44.8072C338.933 44.8072 339.667 44.3163 339.667 43.3956C339.667 42.5979 339.055 42.3523 337.829 41.9227C336.491 41.4568 336.424 40.6038 336.419 37.7369V37.4219C336.419 37.368 336.419 37.3136 336.419 37.2585V22.739C339.055 20.2227 341.505 18.8112 345.243 18.8112C349.715 18.8112 352.227 21.4502 352.227 26.1144V37.2585C352.227 40.3885 352.043 41.3705 351.002 41.8614L350.389 42.1682C349.837 42.4751 349.408 42.7206 349.408 43.3956C349.408 44.8547 350.179 44.8877 351.016 44.8387L351.136 44.8311Z" fill="black"/>
<path d="M392.487 0.275042C399.94 0.280381 406.269 0.562495 412.532 4.74788C419.199 9.22072 421.987 15.5317 421.987 22.8229C421.987 29.3178 418.042 45.1258 395.866 45.1258H378.168C378.088 45.1258 378.009 45.1248 377.93 45.1234L377.77 45.1192C376.763 45.0851 375.798 44.8806 375.798 43.7165C375.798 42.7361 376.614 42.4911 377.5 42.2459C379.701 41.6197 379.879 41.1712 379.883 39.5749V39.4332C379.883 39.192 379.88 38.9259 379.88 38.631V4.56404C379.88 3.64497 378.588 3.46113 377.703 3.2161C376.751 2.90974 375.866 2.7259 375.866 1.68431C375.866 0.397557 377.159 0.275042 378.247 0.275042H392.487ZM392.56 3.577C386.387 3.577 385.912 4.86102 385.912 9.875V35.0093C385.912 35.0676 385.912 35.1253 385.912 35.1827V35.5212C385.914 40.9081 386.161 42.099 393.375 42.099C406.604 42.099 414.882 35.0673 414.882 23.0214C414.882 10.9756 407.826 3.577 392.56 3.577Z" fill="black"/>
<path d="M440.768 15.4086C448.695 15.4086 455.331 21.8323 455.331 29.9214C455.331 38.4268 448.813 44.8505 440.475 44.8505C432.487 44.8505 426.088 38.2483 426.088 30.1592C426.088 22.1296 432.84 15.4086 440.768 15.4086ZM440.518 18.6204C433.675 18.6204 430.606 24.5533 430.606 30.6641C430.606 36.7156 433.852 42.1739 440.4 42.1739C445.413 42.1739 450.546 37.9023 450.546 30.1302C450.546 24.0194 447.066 18.6204 440.518 18.6204Z" fill="black"/>
<path d="M474.191 44.8993C478.2 44.8993 480.939 43.594 483.61 41.4582C484.546 40.6869 486.216 39.085 486.216 37.8984C486.216 37.2457 485.748 36.8304 485.08 36.8304C484.078 36.8304 483.477 37.6017 482.943 38.195C480.939 40.3309 478.132 41.4582 475.06 41.4582C468.582 41.4582 463.92 37.3273 463.92 30.6601C463.92 23.9928 468.314 18.4381 474.259 18.4381C480.871 18.4381 479.737 23.5726 483.61 23.5726C484.88 23.5726 485.955 22.3235 485.882 21.2587C485.685 18.4381 481.708 16.0512 475.661 15.531C472.2 15.2331 471.052 15.5063 469.216 16.0512C467.381 16.5961 466.225 17.2883 464.836 18.3357C460.987 21.2382 459.431 25.7333 459.431 30.6601C459.431 38.551 464.908 44.8993 474.191 44.8993Z" fill="black"/>
<path d="M260.493 12.7358C262.375 12.7358 263.704 11.4981 263.704 9.5291C263.704 7.84132 262.375 6.60363 260.714 6.60363C258.997 6.60363 257.614 7.84132 257.614 9.64166C257.614 11.3293 258.776 12.7358 260.493 12.7358Z" fill="black"/>
<path d="M266.748 43.6486C266.748 42.8512 266.188 42.6233 265.29 42.2816C263.944 41.769 263.888 41.1425 263.888 37.8959V23.9435C263.888 17.3935 263.176 16.8695 262.406 16.8276L262.355 16.8255C262.331 16.8247 262.305 16.8244 262.28 16.8239H262.204C261.532 16.8239 260.241 17.5074 259.623 17.7922C256.314 19.3299 256.09 19.7286 256.09 20.4122C256.09 21.0956 256.763 21.3235 257.604 21.4943C259.574 21.8727 259.675 23.38 259.679 25.5778V25.8159C259.679 25.8561 259.679 25.8963 259.679 25.9369V38.7503C259.679 41.0855 259.623 41.9399 257.716 42.4524C257.1 42.6233 256.651 42.908 256.651 43.6486C256.651 44.7591 257.611 44.8952 258.491 44.9016H264.897C265.908 44.9016 266.748 44.7876 266.748 43.6486Z" fill="black"/>
<path d="M312.393 44.8993C316.4 44.8993 319.141 43.594 321.812 41.4582C322.747 40.6869 324.416 39.085 324.416 37.8984C324.416 37.2457 323.95 36.8304 323.281 36.8304C322.279 36.8304 321.679 37.6017 321.145 38.195C319.141 40.3309 316.334 41.4582 313.261 41.4582C306.782 41.4582 302.121 37.3273 302.121 30.6601C302.121 23.9928 306.516 18.4381 312.461 18.4381C319.072 18.4381 317.938 23.5726 321.812 23.5726C323.081 23.5726 324.157 22.3235 324.082 21.2587C323.887 18.4381 319.908 16.0512 313.863 15.531C310.402 15.2331 309.252 15.5063 307.417 16.0512C305.582 16.5961 304.427 17.2883 303.038 18.3357C299.189 21.2382 297.632 25.7333 297.632 30.6601C297.632 38.551 303.109 44.8993 312.393 44.8993Z" fill="black"/>
<path d="M156.494 15.6841C159.719 15.6841 162.545 16.6994 164.973 18.7608C167.368 20.8222 168.567 23.6221 168.567 27.0988C168.567 30.3293 167.092 31.96 164.112 31.9292L163.237 31.9291C163.193 31.9291 163.148 31.9291 163.103 31.9291L162.827 31.9289C161.19 31.9278 159.074 31.9225 156.494 31.8985C154.026 31.8756 152.344 31.8698 150.707 31.8682L150.418 31.8681C150.37 31.8681 150.321 31.8679 150.274 31.8679L149.039 31.8678C147.78 31.8678 147.227 32.4831 147.349 33.7138C147.595 35.5907 148.547 37.4059 150.237 39.0981C151.171 40.0329 152.77 41.1967 153.739 41.4713C154.501 41.7842 156.882 42.1022 157.844 41.9956C160.114 41.9956 163.686 40.584 165.647 38.4189C166.169 37.818 166.755 37.0383 167.754 37.0207C168.419 37.009 168.893 37.4149 168.904 38.0658C168.924 39.249 167.288 40.8758 166.369 41.6612C163.742 43.8379 161.244 45.0434 156.52 45.0434C155.059 45.0434 153.759 44.8688 152.606 44.5433L152.458 44.5C150.103 43.8824 148.053 42.6633 146.326 40.8518C143.714 38.1135 142.393 34.5753 142.393 30.2986C142.393 26.0219 143.714 22.5144 146.356 19.7761C148.997 17.0378 152.377 15.6841 156.494 15.6841ZM156.769 18.8949C154.286 18.8641 152.152 19.6333 150.369 21.2021C148.587 22.8017 147.68 24.6168 147.68 26.6164C147.68 27.2932 147.944 27.7854 148.44 28.0623C148.937 28.37 149.96 28.5238 151.568 28.5238H163.344C164.191 28.5238 164.6 27.9085 164.6 26.678C164.6 24.4015 163.899 22.5557 162.497 21.1098C161.065 19.664 159.165 18.9256 156.769 18.8949Z" fill="black"/>
<path d="M501.846 44.8508C508.207 44.8508 513 40.6673 513 35.3642C513 26.9792 495.855 29.2362 495.855 22.6958C495.855 19.7497 499.274 18.4534 502.284 18.4534C508.369 18.4534 508.606 22.6958 510.589 22.6958C511.752 22.6958 511.479 20.6336 511.479 20.0444C511.479 18.7481 511.409 18.041 510.11 17.3928C507.512 16.0965 505.976 15.6841 503.035 15.6841C496.129 15.6841 491.547 19.5729 491.547 24.11C491.547 34.7751 508.328 29.6488 508.328 37.132C508.328 40.3727 505.976 42.0226 502.694 42.0226C501.053 42.0226 499.311 41.7982 497.601 41.0912C494.711 40.0909 495.35 37.132 492.025 36.9552C491.069 36.9043 490.317 37.8979 490.317 38.6639C490.317 42.1993 496.854 44.8508 501.846 44.8508Z" fill="black"/>
<path d="M366.329 57C367.231 57 368.072 56.7743 368.849 56.3231C369.628 55.8717 370.241 55.2572 370.69 54.4797C371.139 53.7022 371.364 52.8598 371.364 51.9527C371.364 51.0501 371.138 50.2088 370.687 49.4291C370.235 48.6493 369.62 48.0327 368.843 47.5791C368.064 47.1256 367.227 46.8987 366.329 46.8987C365.426 46.8987 364.587 47.1244 363.808 47.5757C363.031 48.027 362.416 48.6426 361.964 49.4223C361.514 50.2021 361.288 51.0456 361.288 51.9527C361.288 52.8598 361.512 53.7032 361.961 54.4831C362.411 55.2629 363.024 55.8773 363.802 56.3264C364.58 56.7755 365.422 57 366.329 57ZM366.329 56.1622C365.168 56.1622 364.18 55.7522 363.362 54.9321C362.543 54.1122 362.134 53.1189 362.134 51.9527C362.134 50.7909 362.544 49.7978 363.365 48.9732C364.185 48.1488 365.173 47.7366 366.329 47.7366C367.48 47.7366 368.466 48.1488 369.287 48.9732C370.107 49.7978 370.517 50.7909 370.517 51.9527C370.517 53.1146 370.108 54.1066 369.289 54.9288C368.472 55.751 367.484 56.1622 366.329 56.1622ZM365.189 54.6673V52.3549H365.708C366.042 52.3549 366.308 52.4453 366.509 52.6263C366.709 52.8074 366.981 53.2039 367.323 53.8161L367.797 54.6673H368.863L368.21 53.6083C367.934 53.166 367.706 52.8475 367.526 52.6531C367.346 52.4588 367.153 52.3191 366.949 52.2342C367.402 52.1984 367.774 52.0377 368.063 51.7517C368.352 51.4657 368.496 51.1149 368.496 50.6993C368.496 50.4222 368.414 50.1609 368.25 49.915C368.085 49.6692 367.866 49.4939 367.592 49.3888C367.319 49.2838 366.851 49.2314 366.189 49.2314H364.315V54.6673H365.189ZM366.255 51.6042H365.189V49.9687H366.189C366.7 49.9687 367.057 50.029 367.26 50.1496C367.461 50.2702 367.562 50.4804 367.562 50.7796C367.562 51.0657 367.459 51.2746 367.25 51.4065C367.04 51.5382 366.709 51.6042 366.255 51.6042Z" fill="black"/>
<path d="M68.9613 41.6231C70.0024 41.6231 70.8463 40.7733 70.8463 39.7252C70.8463 38.6772 70.0024 37.8274 68.9613 37.8274C67.9203 37.8274 67.0764 38.6772 67.0764 39.7252C67.0764 40.7733 67.9203 41.6231 68.9613 41.6231Z" fill="black"/>
<path d="M68.9613 41.6231C70.0024 41.6231 70.8463 40.7733 70.8463 39.7252C70.8463 38.6772 70.0024 37.8274 68.9613 37.8274C67.9203 37.8274 67.0764 38.6772 67.0764 39.7252C67.0764 40.7733 67.9203 41.6231 68.9613 41.6231Z" fill="#FFBA0A"/>
<path d="M282.38 44.8508C288.739 44.8508 293.534 40.6673 293.534 35.3642C293.534 26.9792 276.388 29.2362 276.388 22.6958C276.388 19.7497 279.808 18.4534 282.816 18.4534C288.902 18.4534 289.138 22.6958 291.122 22.6958C292.285 22.6958 292.011 20.6336 292.011 20.0444C292.011 18.7481 291.942 18.041 290.644 17.3928C288.044 16.0965 286.508 15.6841 283.569 15.6841C276.661 15.6841 272.08 19.5729 272.08 24.11C272.08 34.7751 288.86 29.6488 288.86 37.132C288.86 40.3727 286.508 42.0226 283.227 42.0226C281.586 42.0226 279.844 41.7982 278.135 41.0912C275.244 40.0909 275.883 37.132 272.559 36.9552C271.602 36.9043 270.849 37.8979 270.849 38.6639C270.849 42.1993 277.388 44.8508 282.38 44.8508Z" fill="black"/>
<path fill-rule="evenodd" clip-rule="evenodd" d="M25.6909 44.8508H3.553C1.59073 44.8508 0 43.2493 0 41.2738V22.5631C1.60767 30.8633 3.83165 36.2234 6.67191 38.6433C9.51218 41.0631 15.8519 43.1323 25.6909 44.8508Z" fill="black"/>
<path fill-rule="evenodd" clip-rule="evenodd" d="M48.9223 0H71.0602C73.0225 0 74.6133 1.60148 74.6133 3.577V22.2877C73.0055 13.9875 70.7817 8.62735 67.9413 6.20752C65.1011 3.78769 58.7614 1.71851 48.9223 0Z" fill="black"/>
</svg>
