<svg width="517" height="57" viewBox="0 0 517 57" fill="none" xmlns="http://www.w3.org/2000/svg">
<path d="M62.4603 40.0012C63.4028 40.0012 64.1667 39.2294 64.1667 38.2773C64.1667 37.3253 63.4028 36.5535 62.4603 36.5535C61.5179 36.5535 60.7539 37.3253 60.7539 38.2773C60.7539 39.2294 61.5179 40.0012 62.4603 40.0012Z" fill="#FFCA18"/>
<path fill-rule="evenodd" clip-rule="evenodd" d="M23.2674 42.9305H3.21692C1.44098 42.9305 0 41.4752 0 39.6827V22.6909C1.45678 30.2296 3.46972 35.0951 6.04199 37.2936C8.61426 39.4922 14.3561 41.369 23.2674 42.9305Z" fill="black"/>
<path fill-rule="evenodd" clip-rule="evenodd" d="M44.3125 2.2019H64.3629C66.1389 2.2019 67.5799 3.65718 67.5799 5.44973V22.4415C66.1231 14.9028 64.1101 10.0373 61.5379 7.83876C58.9656 5.64335 53.2238 3.76336 44.3125 2.2019Z" fill="black"/>
<path d="M369.836 56.6273C370.763 56.6273 371.62 56.3982 372.417 55.9352C373.215 55.4721 373.844 54.8482 374.305 54.0537C374.765 53.2592 374.993 52.3965 374.993 51.4704C374.993 50.5492 374.76 49.6865 374.3 48.892C373.839 48.0975 373.21 47.4638 372.407 47.0008C371.61 46.5377 370.753 46.3038 369.831 46.3038C368.905 46.3038 368.048 46.5329 367.25 46.9959C366.453 47.459 365.824 48.0877 365.363 48.8822C364.902 49.6767 364.67 50.5394 364.67 51.4655C364.67 52.3916 364.897 53.2544 365.358 54.0489C365.819 54.8434 366.448 55.4721 367.245 55.9303C368.048 56.3982 368.91 56.6273 369.836 56.6273ZM369.836 55.7743C368.647 55.7743 367.637 55.3552 366.795 54.5168C365.958 53.6784 365.536 52.6646 365.536 51.4753C365.536 50.286 365.958 49.2722 366.795 48.4338C367.637 47.5906 368.647 47.1714 369.831 47.1714C371.01 47.1714 372.021 47.5906 372.863 48.4338C373.705 49.277 374.121 50.2909 374.121 51.4753C374.121 52.6597 373.7 53.6736 372.863 54.5168C372.036 55.3552 371.025 55.7743 369.836 55.7743ZM368.672 54.2438V51.8798H369.207C369.549 51.8798 369.821 51.9725 370.029 52.1577C370.233 52.3429 370.51 52.7475 370.862 53.3714L371.347 54.239H372.437L371.768 53.1569C371.486 52.7036 371.253 52.3819 371.07 52.182C370.887 51.9822 370.688 51.8409 370.48 51.7531C370.946 51.719 371.327 51.5533 371.625 51.2608C371.922 50.9684 372.065 50.6126 372.065 50.1836C372.065 49.9009 371.981 49.6328 371.813 49.3843C371.644 49.1357 371.422 48.9553 371.139 48.8481C370.857 48.7409 370.381 48.6872 369.703 48.6872H367.78V54.239H368.672V54.2438ZM369.762 51.1146H368.667V49.4427H369.693C370.218 49.4427 370.584 49.5061 370.787 49.628C370.995 49.7498 371.099 49.9643 371.099 50.2714C371.099 50.5638 370.991 50.7783 370.777 50.9099C370.569 51.0512 370.228 51.1146 369.762 51.1146Z" fill="black"/>
<path d="M171.737 14.6419H177.359V18.5073C178.453 17.1798 179.839 16.0865 181.518 15.2275C183.236 14.3295 185.11 13.8805 187.14 13.8805C189.444 13.8805 191.455 14.3685 193.173 15.3447C194.93 16.3208 196.277 17.6874 197.214 19.4444C198.19 21.1624 198.678 23.1341 198.678 25.3597V42.7542H192.411V26.1796C192.411 23.9931 191.806 22.3337 190.596 21.2014C189.385 20.0301 187.804 19.4444 185.852 19.4444C184.212 19.4444 182.728 19.8934 181.401 20.7914C180.073 21.6895 178.941 22.8023 178.004 24.1298V42.7542H171.737V14.6419Z" fill="black"/>
<path d="M220.223 56.4004C215.967 56.4004 212.082 55.5219 208.568 53.7649V48.0253C211.926 49.9385 215.538 50.8951 219.403 50.8951C222.488 50.8951 224.967 50.2509 226.841 48.9624C228.754 47.6739 229.711 45.5459 229.711 42.5785V39.0059C227.173 42.0124 223.776 43.5156 219.52 43.5156C216.787 43.5156 214.366 42.8518 212.258 41.5243C210.149 40.1968 208.51 38.4007 207.338 36.1361C206.206 33.8715 205.64 31.3921 205.64 28.698C205.64 26.0039 206.206 23.5246 207.338 21.26C208.51 18.9954 210.149 17.1993 212.258 15.8718C214.366 14.5442 216.787 13.8805 219.52 13.8805C223.971 13.8805 227.583 15.5985 230.355 19.0344V14.6419H235.978V42.4028C235.978 45.6045 235.236 48.2596 233.752 50.368C232.307 52.4764 230.394 53.9992 228.013 54.9363C225.67 55.9124 223.073 56.4004 220.223 56.4004ZM211.965 28.698C211.965 31.4312 212.785 33.6763 214.425 35.4333C216.065 37.1513 218.173 38.0103 220.75 38.0103C222.78 38.0103 224.577 37.4832 226.138 36.429C227.739 35.3747 228.93 34.0667 229.711 32.5049V25.2426C228.93 23.6027 227.739 22.2166 226.138 21.0843C224.577 19.952 222.78 19.3858 220.75 19.3858C218.173 19.3858 216.065 20.2643 214.425 22.0214C212.785 23.7393 211.965 25.9649 211.965 28.698Z" fill="black"/>
<path d="M245.118 0H251.385V42.7542H245.118V0Z" fill="black"/>
<path d="M260.646 14.6419H266.912V42.7542H260.646V14.6419ZM259.943 5.50534C259.943 4.33399 260.294 3.43596 260.997 2.81124C261.739 2.14747 262.656 1.81559 263.75 1.81559C264.882 1.81559 265.799 2.14747 266.502 2.81124C267.244 3.43596 267.615 4.33399 267.615 5.50534C267.615 6.71573 267.244 7.65281 266.502 8.31658C265.799 8.9413 264.882 9.25366 263.75 9.25366C262.656 9.25366 261.739 8.9413 260.997 8.31658C260.294 7.65281 259.943 6.71573 259.943 5.50534Z" fill="black"/>
<path d="M285.778 43.5156C283.708 43.5156 281.698 43.2813 279.745 42.8128C277.793 42.3443 276.134 41.6805 274.767 40.8215V35.2576C276.173 36.1947 277.852 36.9365 279.804 37.4832C281.795 37.9907 283.689 38.2445 285.485 38.2445C287.437 38.2445 288.941 38.0298 289.995 37.6003C291.049 37.1708 291.576 36.429 291.576 35.3747C291.576 34.3986 291.068 33.6568 290.053 33.1492C289.038 32.6025 287.398 31.9778 285.134 31.275C282.908 30.6112 281.092 29.967 279.687 29.3423C278.32 28.7176 277.129 27.8391 276.114 26.7068C275.099 25.5354 274.591 24.0517 274.591 22.2556C274.591 19.4053 275.665 17.2969 277.813 15.9303C279.999 14.5638 282.654 13.8805 285.778 13.8805C287.652 13.8805 289.448 14.0952 291.166 14.5247C292.923 14.9542 294.504 15.5399 295.91 16.2817V21.7871C294.739 21.0062 293.235 20.3619 291.4 19.8544C289.604 19.3077 287.867 19.0344 286.188 19.0344C284.782 19.0344 283.572 19.2882 282.557 19.7958C281.541 20.2643 281.034 21.0257 281.034 22.0799C281.034 23.0951 281.541 23.8955 282.557 24.4812C283.611 25.0278 285.27 25.633 287.535 26.2968C289.682 26.9215 291.459 27.5462 292.865 28.1709C294.27 28.7566 295.461 29.6351 296.437 30.8065C297.452 31.9388 297.96 33.4225 297.96 35.2576C297.96 38.1469 296.828 40.2554 294.563 41.5829C292.298 42.8714 289.37 43.5156 285.778 43.5156Z" fill="black"/>
<path d="M318.264 43.5156C315.648 43.5156 313.188 42.9885 310.885 41.9343C308.581 40.841 306.707 39.2011 305.262 37.0146C303.817 34.7891 303.095 32.095 303.095 28.9323C303.095 25.6135 303.837 22.8218 305.321 20.5572C306.804 18.2926 308.718 16.6136 311.06 15.5204C313.442 14.4271 315.96 13.8805 318.615 13.8805C321.973 13.8805 324.863 14.6028 327.283 16.0475V21.7871C326.268 21.0452 325.058 20.4791 323.652 20.0886C322.286 19.6591 320.9 19.4444 319.494 19.4444C316.722 19.4444 314.34 20.2253 312.349 21.7871C310.396 23.3098 309.42 25.6135 309.42 28.698C309.42 30.7284 309.869 32.4464 310.767 33.852C311.704 35.2186 312.934 36.2532 314.457 36.9561C315.98 37.6198 317.6 37.9517 319.318 37.9517C320.802 37.9517 322.266 37.7565 323.711 37.366C325.155 36.9756 326.444 36.4485 327.576 35.7847V41.5829C324.882 42.8714 321.778 43.5156 318.264 43.5156Z" fill="black"/>
<path d="M334.85 1.75702H341.116V17.8045C342.21 16.6332 343.537 15.6961 345.099 14.9933C346.7 14.2514 348.418 13.8805 350.253 13.8805C352.556 13.8805 354.567 14.3685 356.285 15.3447C358.042 16.3208 359.389 17.6874 360.326 19.4444C361.303 21.1624 361.791 23.1341 361.791 25.3597V42.7542H355.524V26.1796C355.524 23.9931 354.919 22.3337 353.708 21.2014C352.498 20.0301 350.917 19.4444 348.964 19.4444C347.324 19.4444 345.841 19.8934 344.513 20.7914C343.186 21.6895 342.053 22.8023 341.116 24.1298V42.7542H334.85V1.75702Z" fill="black"/>
<path d="M152.542 43.5493C149.613 43.5493 146.939 43.0027 144.518 41.9094C142.097 40.7771 140.165 39.0982 138.72 36.8726C137.314 34.608 136.612 31.8944 136.612 28.7318C136.612 25.5301 137.314 22.8165 138.72 20.5909C140.126 18.3263 141.922 16.6473 144.108 15.5541C146.295 14.4608 148.54 13.9142 150.843 13.9142C153.85 13.9142 156.368 14.5389 158.399 15.7884C160.468 16.9988 161.991 18.6191 162.967 20.6495C163.982 22.6407 164.49 24.8273 164.49 27.209C164.49 28.5756 164.353 29.8641 164.08 31.0745H142.878C143.23 33.4562 144.42 35.2523 146.451 36.4627C148.481 37.634 150.902 38.2197 153.713 38.2197C156.915 38.2197 160.5 37.4264 163.233 36.0988V41.4231C161.945 42.0479 159.804 42.7099 158.047 43.0222C156.29 43.3736 154.455 43.5493 152.542 43.5493ZM158.457 26.3891C158.496 26.2329 158.516 25.9986 158.516 25.6863C158.516 24.7101 158.262 23.7145 157.754 22.6993C157.286 21.6841 156.485 20.8447 155.353 20.1809C154.26 19.4781 152.835 19.1267 151.078 19.1267C148.891 19.1267 146.997 19.7709 145.397 21.0594C143.835 22.3479 142.995 24.1245 142.878 26.3891H158.457Z" fill="black"/>
<path d="M441.988 43.5156C439.294 43.5156 436.776 42.9495 434.433 41.8172C432.129 40.6458 430.275 38.9473 428.869 36.7218C427.463 34.4962 426.76 31.8216 426.76 28.698C426.76 25.5744 427.463 22.8999 428.869 20.6743C430.275 18.4487 432.129 16.7698 434.433 15.6375C436.776 14.4662 439.294 13.8805 441.988 13.8805C444.682 13.8805 447.181 14.4662 449.485 15.6375C451.827 16.7698 453.702 18.4487 455.107 20.6743C456.513 22.8999 457.216 25.5744 457.216 28.698C457.216 31.8216 456.513 34.4962 455.107 36.7218C453.702 38.9473 451.827 40.6458 449.485 41.8172C447.181 42.9495 444.682 43.5156 441.988 43.5156ZM433.086 28.698C433.086 31.4312 433.906 33.6372 435.546 35.3162C437.186 36.9561 439.333 37.776 441.988 37.776C444.643 37.776 446.791 36.9561 448.43 35.3162C450.07 33.6372 450.89 31.4312 450.89 28.698C450.89 25.9649 450.07 23.7784 448.43 22.1385C446.791 20.4596 444.643 19.6201 441.988 19.6201C439.333 19.6201 437.186 20.4596 435.546 22.1385C433.906 23.7784 433.086 25.9649 433.086 28.698Z" fill="black"/>
<path d="M477.875 43.5156C475.259 43.5156 472.799 42.9885 470.496 41.9343C468.192 40.841 466.318 39.2011 464.873 37.0146C463.429 34.7891 462.706 32.095 462.706 28.9323C462.706 25.6135 463.448 22.8218 464.932 20.5572C466.416 18.2926 468.329 16.6136 470.671 15.5204C473.053 14.4271 475.572 13.8805 478.227 13.8805C481.585 13.8805 484.474 14.6028 486.895 16.0475V21.7871C485.879 21.0452 484.669 20.4791 483.263 20.0886C481.897 19.6591 480.511 19.4444 479.105 19.4444C476.333 19.4444 473.951 20.2253 471.96 21.7871C470.008 23.3098 469.032 25.6135 469.032 28.698C469.032 30.7284 469.481 32.4464 470.379 33.852C471.316 35.2186 472.546 36.2532 474.068 36.9561C475.591 37.6198 477.211 37.9517 478.929 37.9517C480.413 37.9517 481.877 37.7565 483.322 37.366C484.767 36.9756 486.055 36.4485 487.187 35.7847V41.5829C484.493 42.8714 481.389 43.5156 477.875 43.5156Z" fill="black"/>
<path d="M504.183 43.5156C502.114 43.5156 500.103 43.2813 498.151 42.8128C496.198 42.3443 494.539 41.6805 493.172 40.8215V35.2576C494.578 36.1947 496.257 36.9365 498.209 37.4832C500.2 37.9907 502.094 38.2445 503.89 38.2445C505.842 38.2445 507.346 38.0298 508.4 37.6003C509.454 37.1708 509.981 36.4289 509.981 35.3747C509.981 34.3986 509.474 33.6568 508.458 33.1492C507.443 32.6025 505.803 31.9778 503.539 31.275C501.313 30.6112 499.498 29.967 498.092 29.3423C496.725 28.7176 495.535 27.8391 494.519 26.7068C493.504 25.5354 492.997 24.0517 492.997 22.2556C492.997 19.4053 494.07 17.2969 496.218 15.9303C498.404 14.5638 501.059 13.8805 504.183 13.8805C506.057 13.8805 507.853 14.0952 509.571 14.5247C511.328 14.9542 512.91 15.5399 514.315 16.2817V21.7871C513.144 21.0062 511.641 20.3619 509.805 19.8544C508.009 19.3077 506.272 19.0344 504.593 19.0344C503.187 19.0344 501.977 19.2882 500.962 19.7958C499.947 20.2643 499.439 21.0257 499.439 22.0799C499.439 23.0951 499.947 23.8955 500.962 24.4812C502.016 25.0278 503.675 25.633 505.94 26.2968C508.087 26.9215 509.864 27.5462 511.27 28.1709C512.675 28.7566 513.866 29.6351 514.842 30.8065C515.857 31.9388 516.365 33.4225 516.365 35.2576C516.365 38.1469 515.233 40.2554 512.968 41.5829C510.704 42.8714 507.775 43.5156 504.183 43.5156Z" fill="black"/>
<path d="M128.789 12.1735C126.829 9.05482 124.073 6.64229 120.517 4.93586C116.965 3.22944 112.902 2.37819 108.326 2.37819H89.5801V43.5678H95.0465C97.8252 43.5678 110.93 43.8424 114.626 43.3324C118.251 42.8303 121.719 41.473 124.479 39.135C126.348 37.5541 127.781 35.5731 128.933 33.4626C129.089 33.1802 129.255 32.9056 129.403 32.6192C130.977 29.6065 131.731 26.3388 131.731 22.973C131.727 18.8933 130.749 15.2921 128.789 12.1735ZM107.958 37.0951H97.5447V8.85084H107.958C111.105 8.85084 113.868 9.42749 116.257 10.5847C118.645 11.742 120.483 13.3895 121.768 15.5275C123.054 17.6654 123.702 20.1486 123.702 22.973C123.702 25.7974 123.057 28.2766 121.768 30.4146C120.483 32.5525 118.645 34.2001 116.257 35.3573C113.868 36.5146 111.105 37.0951 107.958 37.0951Z" fill="black"/>
<path d="M418.964 12.1735C417.004 9.05482 414.248 6.64229 410.693 4.93586C407.14 3.22944 403.077 2.37819 398.501 2.37819H379.755V43.5678H385.222C388 43.5678 401.105 43.8424 404.801 43.3324C408.426 42.8303 411.894 41.473 414.654 39.135C416.523 37.5541 417.956 35.5731 419.108 33.4626C419.264 33.1802 419.431 32.9056 419.578 32.6192C421.152 29.6065 421.906 26.3388 421.906 22.973C421.902 18.8933 420.924 15.2921 418.964 12.1735ZM398.133 37.0951H387.72V8.85084H398.133C401.28 8.85084 404.043 9.42749 406.432 10.5847C408.82 11.742 410.658 13.3895 411.944 15.5275C413.229 17.6654 413.877 20.1486 413.877 22.973C413.877 25.7974 413.232 28.2766 411.944 30.4146C410.658 32.5525 408.82 34.2001 406.432 35.3573C404.043 36.5146 401.28 37.0951 398.133 37.0951Z" fill="black"/>
</svg>
