<?xml version="1.0" encoding="UTF-8"?>
<svg width="16px" height="10px" viewBox="0 0 16 10" version="1.1" xmlns="http://www.w3.org/2000/svg" xmlns:xlink="http://www.w3.org/1999/xlink">
    <title>mail</title>
    <g id="mail" stroke="none" stroke-width="1" fill="none" fill-rule="evenodd">
        <g id="Group" transform="translate(-3.000000, 0.000000)" fill="#000000">
            <path d="M3.95844625,3.41060513e-13 L18.1174989,3.41060513e-13 C18.6697837,3.44511774e-13 19.1174989,0.44771525 19.1174989,1 C19.1174989,1.36421466 18.9194798,1.69962777 18.6005829,1.87557403 L11.1213727,6.00210861 L11.1213727,6.00210861 L3.48350765,1.88001893 C2.99748661,1.61771759 2.81612597,1.01108243 3.07842732,0.525061397 C3.25298656,0.201618659 3.59090559,3.42016208e-13 3.95844625,3.41060513e-13 Z" id="Path"></path>
            <path d="M3,3 L3,9 C3,9.55228475 3.44771525,10 4,10 L18,10 C18.5522847,10 19,9.55228475 19,9 L19,3 L19,3 L11.0882711,7.43720216 L3,3 Z" id="Path-2"></path>
        </g>
    </g>
</svg>